PathFileType	4	(X/Y/Z)	C:/Users/beibeiliu/ov580/test_trc/User3\sequence.11_training_dense_right.trc
DataRate	CameraRate	NumFrames	NumMarkers	Units	OrigDataRate	OrigDataStartFrame	OrigNumFrames
120	120	10	19	mm	120	1	137
Frame#	Time	ThumbCMC			ThumbMCP			ThumbIP			ThumbTip			IndexMCP			IndexPIP			IndexTip			MiddleMCP			MiddlePIP			MiddleTip			RingMCP			RingPIP			RingTip			PinkyMCP			PinkyPIP			PinkyTip			BackHand1			BackHand2			BackHand3	
		X0	Y0	Z0	X1	Y1	Z1	X2	Y2	Z2	X3	Y3	Z3	X4	Y4	Z4	X5	Y5	Z5	X6	Y6	Z6	X7	Y7	Z7	X8	Y8	Z8	X9	Y9	Z9	X10	Y10	Z10	X11	Y11	Z11	X12	Y12	Z12	X13	Y13	Z13	X14	Y14	Z14	X15	Y15	Z15	X16	Y16	Z16	X17	Y17	Z17	X18	Y18	Z18	
0	0	53.7173	-57.1338	2.74564	29.0645	-58.4226	-23.8077	20.6686	-62.9332	-53.915	25.9041	-72.6442	-76.9811	60.8509	-36.8782	-72.9898	44.3177	-56.3165	-97.3572	32.0841	-81.8893	-92.9881	88.3416	-35.7744	-78.6787	76.5143	-34.8576	-107.665	65.1556	-50.5591	-136.961	104.273	-48.0882	-73.4662	103.228	-44.7026	-100.959	100.805	-49.8491	-129.577	120.633	-68.0021	-61.6534	129.432	-68.295	-83.1917	136.981	-70.6819	-103.214	111.116	-51.392	-23.18	115.018	-54.2614	7.68591	84.285	-38.6706	-3.1982	
1	0.00833333	52.3964	-53.4082	-1.78684	33.4759	-57.5886	-22.3297	23.2706	-60.98	-54.8671	22.4529	-71.2696	-76.4881	61.3287	-35.7298	-72.5756	42.6703	-52.9311	-97.2403	36.1117	-83.8504	-91.4544	86.0114	-33.2981	-76.8936	75.8517	-34.0633	-111.093	65.1389	-49.3821	-138.51	103.164	-44.3828	-74.8935	108.486	-45.2405	-98.4987	100.626	-47.7254	-128.789	120.408	-66.8492	-61.0775	130.551	-66.7883	-84.3517	133.576	-67.9391	-107.199	111.279	-50.2418	-23.14	115.462	-53.7757	7.01713	84.828	-35.1577	-6.00385	
2	0.0166667	51.8939	-53.6089	3.67545	34.5464	-56.786	-24.5352	22.0727	-59.9816	-53.9784	26.0844	-69.6663	-75.9455	62.1533	-35.5283	-72.9205	43.5916	-49.1124	-95.5672	36.8392	-80.6503	-92.873	86.1625	-32.0239	-81.6694	76.6681	-33.3382	-110.442	65.6929	-50.0194	-139.301	106.254	-46.0771	-73.8794	105.296	-43.4114	-97.714	101.495	-48.8014	-127.395	121.69	-65.1588	-61.4524	130.348	-67.7576	-81.729	134.589	-68.277	-103.133	112.645	-50.1488	-24.1773	118.973	-53.768	4.16999	87.5689	-35.6934	-4.61125	
3	0.025	50.8871	-53.0893	1.40437	31.7074	-56.7921	-21.6298	22.8044	-59.976	-54.612	24.4503	-70.7963	-77.3071	60.8946	-34.9148	-70.3577	42.6993	-53.2957	-96.1401	37.2977	-82.58	-92.3174	90.119	-34.8532	-79.8499	79.9455	-36.2034	-111.556	68.3061	-51.1895	-137.319	105.11	-44.9094	-74.2249	106.151	-44.0207	-101.347	99.9195	-49.1671	-127.228	120.988	-66.8699	-59.7236	128.919	-68.3283	-79.1821	135.66	-70.2605	-106.377	110.8	-48.4256	-23.1209	116.712	-56.5875	7.18154	83.6795	-35.1283	-7.25937	
4	0.0333333	49.6329	-52.4719	0.663872	32.4622	-57.5246	-22.2281	21.5581	-60.6698	-52.8396	25.4504	-72.1087	-76.9283	61.1727	-36.636	-74.129	42.8757	-50.7991	-96.0774	36.7731	-82.2479	-92.7104	85.8027	-34.6611	-75.3954	77.1404	-36.9263	-110.619	65.3511	-49.5935	-135.665	103.304	-48.9982	-69.8161	102.471	-44.6005	-101.244	99.4445	-49.7375	-128.685	120.554	-70.6438	-57.5193	129.178	-68.7904	-83.455	133.912	-72.8107	-106.473	110.418	-51.4229	-20.1203	119.488	-57.191	7.12593	88.048	-39.2665	-4.06685	
5	0.0416667	49.5384	-53.9745	-0.653488	33.9629	-59.0955	-22.9092	22.4731	-63.2401	-48.7791	24.2883	-72.6674	-73.5856	57.8906	-37.298	-72.0982	45.4483	-55.5145	-97.1647	29.9863	-84.412	-90.1059	87.1176	-37.0658	-76.5026	79.7542	-37.8776	-108.321	64.471	-50.4008	-134.28	101.845	-48.1235	-73.0556	105.233	-46.9148	-98.6382	97.6356	-50.2113	-124.415	121.963	-70.8803	-60.6616	126.593	-69.5076	-80.0419	135.516	-73.5446	-107.465	112.987	-54.485	-23.7121	115.729	-57.2527	4.31478	86.8627	-39.2614	-8.14235	
6	0.05	51.1381	-56.2717	-0.382664	30.0713	-58.5085	-22.1539	18.1248	-62.2077	-52.4757	20.3474	-73.7317	-75.6641	58.3769	-39	-72.9646	39.79	-55.643	-96.1551	34.4567	-86.019	-92.258	84.1509	-36.1759	-77.4989	76.8314	-38.3612	-108.3	63.5838	-53.3377	-136.093	105.241	-50.4007	-73.8723	105.437	-48.7554	-99.4073	100.415	-52.6982	-125.487	118.475	-71.4252	-58.742	129.334	-73.2609	-82.7543	134.595	-75.3431	-108.067	110.064	-52.7719	-20.706	113.282	-57.1983	6.47544	84.1315	-39.4695	-7.60578	
7	0.0583333	50.0136	-57.4733	3.8242	30.5305	-59.4074	-22.5602	19.2143	-63.3777	-51.2964	21.6757	-73.7345	-77.2009	56.5986	-38.5064	-73.2266	42.1407	-59.3489	-96.7322	31.6166	-88.8102	-90.869	85.4763	-38.4187	-79.9851	76.4763	-40.2241	-109.877	64.6608	-57.828	-139.843	105.468	-52.111	-75.0411	106.18	-50.3217	-100.988	98.3821	-51.8263	-125.35	118.716	-72.6785	-57.7061	126.686	-72.6798	-79.5104	136.183	-75.811	-105.041	109.883	-51.4476	-24.9361	114.522	-57.7963	8.09582	82.7198	-38.9159	-4.38082	
8	0.0666667	52.7375	-58.1924	-0.885303	30.6985	-60.5377	-21.7447	21.2274	-64.6494	-48.8002	20.5735	-74.6947	-74.3195	58.1985	-41.0596	-74.0552	41.3747	-57.7907	-96.3858	33.255	-85.6512	-93.1907	86.6611	-39.6746	-78.52	76.7553	-42.7362	-111.588	64.486	-54.9603	-134.168	103.186	-52.1876	-70.1723	103.864	-50.1278	-97.3156	99.4931	-54.3688	-128.153	120.676	-73.5163	-58.8405	126.229	-73.3295	-81.9826	135.958	-79.5269	-102.142	113.984	-54.8384	-23.5458	117.329	-60.2452	4.88952	85.896	-42.4574	-3.83279	
9	0.075	50.7113	-58.0287	4.33658	30.2943	-61.6467	-22.2889	19.6517	-64.9093	-48.8177	21.2093	-74.8736	-75.8372	60.3351	-42.2618	-74.3338	41.1738	-55.8108	-94.076	32.2194	-88.647	-90.1965	83.6963	-38.2549	-80.2336	76.3306	-43.3167	-111.159	63.1869	-55.4649	-134.907	104.211	-53.5324	-70.2442	103.22	-50.4943	-97.06	98.4398	-55.0236	-126.013	122.439	-75.8984	-58.8102	127.48	-75.1736	-81.0939	133.288	-76.5992	-103.451	108.384	-56.2733	-20.7991	116.63	-61.6707	3.80831	88.3987	-42.6736	-3.10858	
